<svg id="Capa_1" enable-background="new 0 0 496.83 496.83" height="512" viewBox="0 0 496.83 496.83" width="512" xmlns="http://www.w3.org/2000/svg"><g><g><path d="m255.685 390.02h30v74.81h-30z"/><path d="m435.685 390.02h30v54.81h-30z"/><path d="m315.685 390.02h30v30.809h-30z"/><path d="m315.685 450.742h30v46.087h-30z"/><path d="m195.685 390.02h30v48.809h-30z"/><path d="m375.685 390.02h30v95.627h-30z"/></g><g><path d="m180.477 0h30v62.066h-30z"/><path d="m276.732 62.545h62.068v30h-62.068z" transform="matrix(.707 -.707 .707 .707 35.31 240.336)"/><path d="m52.155 287.122h62.067v30h-62.067z" transform="matrix(.707 -.707 .707 .707 -189.267 147.313)"/><path d="m5.644 174.833h62.067v30h-62.067z"/><path d="m68.189 46.511h30v62.067h-30z" transform="matrix(.707 -.707 .707 .707 -30.467 81.534)"/><path d="m428.571 235.291c-2.613 0-5.182.179-7.711.49-3.619-46.603-42.553-83.3-90.085-83.3-47.539 0-86.479 36.709-90.086 83.323-2.587-.326-5.217-.513-7.892-.513-34.581 0-62.615 28.034-62.615 62.615s28.033 62.615 62.615 62.615h195.774c34.581 0 62.615-28.033 62.615-62.615s-28.034-62.615-62.615-62.615z"/><path d="m248.824 154.697c7.466-6.946 15.692-12.842 24.472-17.622-16.912-24.896-45.454-41.252-77.819-41.252-51.921 0-94.011 42.09-94.011 94.011 0 33.259 17.271 62.485 43.334 79.197 10.45-31.769 37.647-56.006 71.105-62.196 6.187-19.778 17.441-37.739 32.919-52.138z"/></g></g></svg>