<svg id="Capa_1" enable-background="new 0 0 512.33 512.33" height="512" viewBox="0 0 512.33 512.33" width="512" xmlns="http://www.w3.org/2000/svg"><g><path d="m180.727 0h30v62.067h-30z"/><path d="m276.982 62.545h62.067v30h-62.067z" transform="matrix(.707 -.707 .707 .707 35.383 240.512)"/><path d="m52.405 287.122h62.068v30h-62.068z" transform="matrix(.707 -.707 .707 .707 -189.194 147.49)"/><path d="m5.894 174.833h62.066v30h-62.066z"/><path d="m68.439 46.511h30v62.067h-30z" transform="matrix(.707 -.707 .707 .707 -30.394 81.714)"/><path d="m433.995 220.461c-4.526-20.909-15.339-39.998-31.244-54.791-19.546-18.179-45.019-28.19-71.726-28.19-17.141 0-33.771 4.13-48.654 11.891-15.269-32.566-48.363-55.177-86.645-55.177-52.735 0-95.639 42.904-95.639 95.64 0 39.385 23.938 73.27 58.022 87.91-1.733 6.434-2.677 13.188-2.677 20.162 0 42.797 34.817 77.615 77.614 77.615h195.774c42.797 0 77.614-34.818 77.614-77.615.002-41.061-32.043-74.776-72.439-77.445zm-303.907-30.628c0-36.194 29.445-65.64 65.639-65.64 28.347 0 52.537 18.069 61.697 43.29-14.871 14.524-25.019 32.899-29.364 52.965-23.044 1.468-43.375 13.046-56.625 30.326-24.198-9.673-41.347-33.329-41.347-60.941zm298.734 155.687h-195.775c-26.255 0-47.614-21.36-47.614-47.615s21.359-47.615 47.614-47.615c1.938 0 3.906.129 6.019.395l15.615 1.966 1.214-15.691c1.46-18.864 9.923-36.378 23.83-49.316 13.978-13.003 32.196-20.164 51.301-20.164 19.102 0 37.318 7.159 51.294 20.158 13.906 12.934 22.371 30.443 23.836 49.304l1.215 15.642 15.571-1.916c2.065-.254 3.988-.377 5.88-.377 26.255 0 47.614 21.36 47.614 47.615s-21.36 47.614-47.614 47.614z"/><path d="m255.935 405.52h30v74.81h-30z"/><path d="m435.935 405.52h30v54.81h-30z"/><path d="m315.935 405.52h30v30.81h-30z"/><path d="m315.935 466.242h30v46.087h-30z"/><path d="m195.935 405.52h30v48.81h-30z"/><path d="m375.935 405.52h30v95.627h-30z"/></g></svg>